<svg width="636.1" height="140.4" xmlns="http://www.w3.org/2000/svg" xml:space="preserve" version="1.1">
 <defs>
  <linearGradient y2="0.50042" x2="6.39919" y1="0.50042" x1="-0.14276" id="SVGID_7_">
   <stop stop-color="#DA8CFF" offset="0.0015"/>
   <stop stop-color="#9A55FF" offset="1"/>
  </linearGradient>
  <linearGradient y2="0.50068" x2="6.40814" y1="0.50068" x1="-0.14268" id="SVGID_8_">
   <stop stop-color="#DA8CFF" offset="0.0015"/>
   <stop stop-color="#9A55FF" offset="1"/>
  </linearGradient>
  <linearGradient y2="0.5006" x2="6.4083" y1="0.5006" x1="-0.14268" id="SVGID_9_">
   <stop stop-color="#DA8CFF" offset="0.0015"/>
   <stop stop-color="#9A55FF" offset="1"/>
  </linearGradient>
  <linearGradient y2="0.49992" x2="6.39299" y1="0.49992" x1="-2.59233" id="svg_18">
   <stop stop-color="#DA8CFF" offset="0.0015"/>
   <stop stop-color="#9A55FF" offset="1"/>
  </linearGradient>
 </defs>
 <g>
  <title>Layer 1</title>
  <g id="svg_7">
   <g id="svg_8">
    <path id="svg_9" fill="url(#SVGID_7_)" d="m100.2,30l-47.1,-23.5c-1.2,-0.6 -2.5,-0.6 -3.7,0l-47.1,23.5c-1.4,0.7 -2.3,2.2 -2.3,3.7c0,1.6 0.9,3 2.3,3.7l47.1,23.6c0.6,0.3 1.2,0.4 1.9,0.4c0.6,0 1.3,-0.1 1.9,-0.4l47.1,-23.5c1.4,-0.7 2.3,-2.1 2.3,-3.7c-0.1,-1.6 -1,-3.1 -2.4,-3.8zm-49,22.7l-37.8,-19l37.8,-18.9l37.8,18.9l-37.8,19z" class="st6"/>
   </g>
  </g>
  <g id="svg_10">
   <g id="svg_11">
    <path id="svg_12" fill="url(#SVGID_8_)" d="m102,79c-1,-2 -3.5,-2.9 -5.6,-1.9l-45.2,22.7l-45.2,-22.7c-2,-1 -4.5,-0.2 -5.6,1.9c-1,2 -0.2,4.5 1.9,5.6l47.1,23.5c0.6,0.3 1.2,0.4 1.9,0.4c0.6,0 1.3,-0.1 1.9,-0.4l47.1,-23.5c1.9,-1.1 2.7,-3.6 1.7,-5.6z" class="st7"/>
   </g>
  </g>
  <g id="svg_13">
   <g id="svg_14">
    <path id="svg_15" fill="url(#SVGID_9_)" d="m102,55.4c-1,-2 -3.5,-2.9 -5.6,-1.9l-45.2,22.7l-45.2,-22.6c-2,-1 -4.5,-0.2 -5.6,1.9c-1,2 -0.2,4.5 1.9,5.6l47.1,23.5c0.6,0.3 1.2,0.4 1.9,0.4c0.6,0 1.3,-0.1 1.9,-0.4l47,-23.6c2,-1 2.8,-3.5 1.8,-5.6z" class="st8"/>
   </g>
  </g>
  <text transform="matrix(6.84136 0 0 4.41222 -835.138 -89.7038)" stroke="null" xml:space="preserve" text-anchor="start" font-family="Noto Sans JP" font-size="24" id="svg_17" y="43.43756" x="143.29699" stroke-width="0" fill="url(#svg_18)">Saticle</text>
 </g>
</svg>